# xmcd CD database file
#
# Track frame offsets:
#	150
#	12423
#	23620
#	37236
#	47009
#	63659
#	79765
#	93622
#	106228
#	122169
#	151575
#	155889
#	172468
#	189086
#	213840
#
# Disc length: 3915 seconds
#
# Revision: 0
# Processed by: cddbd v1.5.2PL0 Copyright (c) Steve Scherf et al.
# Submitted via: CDex 1.70beta2
#
DISCID=c70f490f
DTITLE=Tony Bennett - 24.05.1996 live - Berlin
DYEAR=1996
DGENRE=Jazz
TTITLE0=Old Devil Moon
TTITLE1=I Left My Heart In San Francisco
TTITLE2=Steppin' Out
TTITLE3=A Foggy Day
TTITLE4=Somewehere Over The Rainbow
TTITLE5=People
TTITLE6=Love Scene
TTITLE7=Piano Solo
TTITLE8=Don't Get Around Much Anymore
TTITLE9=It Don't Mean A Thing (If It Ain't Got That Swing)
TTITLE10=Monologue
TTITLE11=Fly Me The Moon
TTITLE12=There'll Be Some Changes Made
TTITLE13=How Do You Keep The Music Playing?
TTITLE14=Sinatra and Bennett - Medley 03.09.1988 (Bonus)
EXTD=YEAR: 1996
EXTT0=
EXTT1=
EXTT2=
EXTT3=
EXTT4=
EXTT5=
EXTT6=
EXTT7=
EXTT8=
EXTT9=
EXTT10=
EXTT11=
EXTT12=
EXTT13=
EXTT14=
PLAYORDER=
